<svg xmlns="http://www.w3.org/2000/svg" viewBox="0 0 200 73.86"><defs><style>.cls-1{fill:#1c69b7;}</style></defs><title>GrowApp_Logotipo_Azul</title><g id="Dashboard_2" data-name="Dashboard 2"><g id="Logo_Branco"><rect class="cls-1" x="2.95" y="14.41" width="15.63" height="24.34"/><polygon class="cls-1" points="0 65.55 0 49.92 44.81 49.92 62.9 36.47 69.85 50.46 49.88 65.55 0 65.55"/><rect class="cls-1" x="29.74" y="8.32" width="15.63" height="30.44"/><polygon class="cls-1" points="69.61 59.2 59.87 48.12 50.13 37.03 64.6 34.13 79.07 31.24 74.34 45.22 69.61 59.2"/></g><path class="cls-1" d="M106.12,30.43a34.39,34.39,0,0,1-9.91,1.64c-5.63,0-9.46-1.37-12-3.77a11.89,11.89,0,0,1-3.72-8.85c0-8.85,7-13.52,16.14-13.52a21.48,21.48,0,0,1,8.44,1.4L103.58,13a17.48,17.48,0,0,0-7.15-1.25c-4.48,0-8.35,2.2-8.35,7.11,0,4.56,3.42,7.56,8.35,7.56a9.91,9.91,0,0,0,2.66-.27V22h-4V16.45h11Z"/><path class="cls-1" d="M110.64,6.53a64.4,64.4,0,0,1,9-.57c4.29,0,7.14.61,9.11,2a6.56,6.56,0,0,1,2.66,5.62,6.76,6.76,0,0,1-4.56,6.16v.15c1.71.72,2.66,2.39,3.39,4.52.87,2.62,1.74,6.38,2.24,7.37h-7.3a30,30,0,0,1-2-5.85c-.8-3.08-1.83-3.69-4.22-3.69h-1.29V31.8h-7.11Zm7.11,10.68h2.13c2.81,0,4.48-1.14,4.48-3.08s-1.45-2.92-3.88-2.92a15.21,15.21,0,0,0-2.73.15Z"/><path class="cls-1" d="M162.05,18.84c0,7.75-5.43,13.42-14.25,13.42-8.43,0-13.56-5.67-13.56-13,0-7.82,5.62-13.48,14-13.48C156.92,5.74,162.05,11.32,162.05,18.84ZM141.87,19c0,4.41,2.44,7.68,6.31,7.68s6.23-3.27,6.23-7.68-2.43-7.75-6.27-7.75S141.87,14.63,141.87,19Z"/><path class="cls-1" d="M170,31.8,163.49,6.19h7.79L173,15.77c.53,3,1.1,6.57,1.52,9h.08c.42-2.81.95-6,1.52-9.16l1.67-9.46H186l1.63,10.07c.49,3,.8,5.55,1.18,8.32h.07c.38-2.77.92-5.89,1.45-8.93L192,6.19h7.37l-7,25.61h-7.91l-1.93-11.17c-.38-2.24-.73-4.45-1-7.41h-.08c-.41,3-.72,5.21-1.17,7.45L178.12,31.8Z"/><path class="cls-1" d="M87.15,56.6l-2.68,7.76H80l9.33-25.6h5.4l9.52,25.6H99.62L96.77,56.6Zm8.79-3.21-2.6-7c-.58-1.59-1-3-1.42-4.39h-.08c-.4,1.38-.8,2.84-1.32,4.34l-2.56,7Z"/><path class="cls-1" d="M108.11,39.06a47.12,47.12,0,0,1,7.56-.53c3.6,0,6.18.8,7.82,2.18A7,7,0,0,1,126,46.28,7.59,7.59,0,0,1,123.8,52c-2,1.87-5,2.79-8.6,2.79a12.3,12.3,0,0,1-2.88-.26v9.84h-4.21Zm4.21,12.12a11.27,11.27,0,0,0,3,.3c4,0,6.51-1.84,6.51-5.06s-2.56-4.65-6.12-4.65a18.17,18.17,0,0,0-3.36.26Z"/><path class="cls-1" d="M130.52,39.06a47.31,47.31,0,0,1,7.56-.53c3.61,0,6.18.8,7.82,2.18a7,7,0,0,1,2.53,5.57A7.59,7.59,0,0,1,146.22,52c-2,1.87-5,2.79-8.6,2.79a12.39,12.39,0,0,1-2.89-.26v9.84h-4.21Zm4.21,12.12a11.35,11.35,0,0,0,3,.3c4,0,6.51-1.84,6.51-5.06s-2.56-4.65-6.12-4.65a18.21,18.21,0,0,0-3.37.26Z"/></g></svg>